# xmcd CD database file
# Copyright (C) 1993-1998 Ti Kan
#
# Track frame offsets:
#  225
#  39442
#  75283
#  122498
#  137472
#  158614
#  167842
#  173312
#  179092
#  185681
#  197323
#  210590
#  216495
#  230660
#  244879
#  253904
#  259559
#  268792
#  278985
#  291097
#
# Disc length: 4376 seconds
#
# Revision: 1
# Processed by: cddbd v1.4b41PL1 Copyright (c) Steve Scherf et al.
# Submitted via: CDWizzard Release:4.35
#
DISCID=1f111514
DTITLE=Rena Razeva - Music in Verse
DYEAR=1900
DGENRE=
TTITLE0=Prelude
TTITLE1=Neumes rythmiques
TTITLE2=Processional
TTITLE3=Registers
TTITLE4=Fleetings
TTITLE5=Wasserklavier 
TTITLE6=Erderklavier
TTITLE7=The Leaf
TTITLE8=Black and White - Khayam Mirza-zade
TTITLE9=Black and White - Khayam Mirza-zade
TTITLE10=Black and White - Khayam Mirza-zade
TTITLE11=Black and White - Khayam Mirza-zade
TTITLE12=Black and White - Khayam Mirza-zade
TTITLE13=Black and White - Khayam Mirza-zade
TTITLE14=Black and White - Khayam Mirza-zade
TTITLE15=On the Train
TTITLE16=Elis
TTITLE17=Elis
TTITLE18=Elis
TTITLE19=Fantasia - Alla Meykhana
EXTD=
EXTT0=
EXTT1=
EXTT2=
EXTT3=
EXTT4=
EXTT5=
EXTT6=
EXTT7=
EXTT8=
EXTT9=
EXTT10=
EXTT11=
EXTT12=
EXTT13=
EXTT14=
EXTT15=
EXTT16=
EXTT17=
EXTT18=
EXTT19=
PLAYORDER=
